<svg xmlns="http://www.w3.org/2000/svg" width="2026.667" height="2026.667" version="1.0" viewBox="0 0 1520 1520"><path d="M306.8 400.5c-.2.2-5.3.6-11.4.9-13.1.8-21.1 1.3-27.9 2.1-2.7.3-7.2.8-10 1-6.1.6-12.3 1.4-15 1.9-1.1.2-4.2.7-7 1-2.7.4-6.3.9-8 1.2-1.6.3-4.1.7-5.5.9-1.4.2-5 .9-8 1.5s-6.6 1.3-8 1.6c-1.4.2-3.5.6-4.7.9-1.3.3-2.5.6-2.8.6-.2 0-1.9.5-3.7 1-1.8.5-4.4 1.1-5.8 1.4-1.4.3-6.5 1.6-11.5 3-4.9 1.4-9.7 2.7-10.6 2.9-2.8.7-17.3 5.7-23.9 8.3-3.6 1.4-7.4 2.9-8.5 3.3-4.6 1.8-30 14.4-34.8 17.2-28.7 17.4-48 33.8-62.8 53.5-3.2 4.3-6.3 8.3-6.9 9-.5.7-1 1.5-1 1.9 0 .3-1.3 2.5-2.8 4.8-4.6 6.8-12.4 24.6-15.3 34.6-4.2 14.8-5.4 21.7-6.3 36.5-.3 4.4-.6 8.2-.7 8.5v4.5c.2 4.5.2 5.9 0 7.7-.2 2.2 1.1 16 2.2 22.8 1.9 12.4 6.5 27.8 11.2 37.9 2.3 5 9.7 18.3 10.6 19.1.4.3 2.5 3 4.8 6.1 5.8 7.6 15.2 16.8 22.9 22.4 1.5 1.1 3.2 2.5 3.8 3 2 1.8 9.5 6.5 10.5 6.5.5 0 1.1.4 1.3.9.3.9 24.9 13.1 27.1 13.5.7.1 1.7.5 2.3.8 1 .7 9.8 3.8 11.9 4.3.6.1 1.9.5 3 .9 5 1.9 7.2 2.6 9.5 3 1.4.2 3.8.9 5.3 1.5s4.2 1.3 6 1.6c1.8.3 4.3 1 5.7 1.4 2.2.8 6.7 1.8 12 2.7.8.2 4.2.9 7.5 1.8 3.3.8 7.7 1.7 9.9 2 2.1.4 4.1.8 4.5 1 .3.2 2.9.6 5.6 1 2.8.3 6.1.8 7.5 1.1 1.4.3 4.1.8 6 1 1.9.3 6 .9 9 1.5 3 .5 7.5 1.1 10 1.4 2.5.4 5.6.8 7 1 1.4.3 4.8.7 7.5 1 2.8.4 6.8.8 9 1.1 2.2.3 5.9.7 8.3 1 2.3.3 6.1.7 8.5 1 2.3.3 6.6.7 9.6.9 3 .3 8.2.8 11.5 1.1 6.2.7 9.6.9 24.1 1.9 4.4.4 10.3.8 13 1.1 4.7.4 9.4.8 28 2.1 4.4.3 9.8.7 12 .9 2.2.2 8.5.6 14 .9 5.5.4 11.8.9 14 1.2 2.2.2 7.4.6 11.5.9 8.7.5 18.2 1.3 26 2 10.3 1.1 14.5 1.4 22 2 4.1.3 8.9.7 10.5.9 1.7.2 6.6.6 11 1s9.1.9 10.5 1.1c1.4.2 5.7.6 9.5 1 3.9.3 8.4.8 10 1 4.2.6 11.8 1.5 17.4 2.1 2.5.3 5.7.7 7.1.9 1.4.2 4.5.7 7 1 2.5.2 5.2.6 6 .8.8.2 3.8.7 6.5 1.1 12.2 1.9 28.1 6.7 39.5 11.9 3.6 1.6 7.4 3.3 8.5 3.8 5 2.2 18.1 11.5 23.8 16.9 9.6 8.9 19.3 25.5 21.1 36 .3 1.4.5 2.5.6 2.5.4 0 1 6.7 1.3 15.3.9 24.3-7.3 44.3-25.7 62.8-16.2 16.2-38.9 29.2-67.6 38.8-10.7 3.5-24.9 7.5-28.5 8-1.1.2-3.1.6-4.5 1-1.4.3-3.6.8-5 1-1.4.3-3.7.8-5.2 1.1-5.3 1-8.3 1.5-11.8 2-1.9.3-5 .7-6.7 1-1.8.3-4.5.7-6 .9-1.6.2-5.9.7-9.8 1.1-8.2.9-10.2 1.2-11.4 2-.5.3-1.2.1-1.6-.5-.4-.6-1-.8-1.6-.5-3.6 2.3-64.1 3.6-93.4 2-7.7-.4-17-.8-20.7-.9-3.8 0-6.8-.3-6.8-.6s-1.5-.6-3.2-.6c-4.1-.2-13.4-1.2-21.8-2.4-3.6-.5-8.3-1.2-10.5-1.4-2.2-.2-9.4-1.3-16-2.5-17.4-3.1-17.6-3.1-21.8-4.2-2.1-.6-5-1.2-6.5-1.4-1.5-.1-8.3-1.7-15.2-3.5-16.3-4.1-15-3.7-18.8-4.9-1.8-.5-3.6-1-4-1-1-.1-16-4.7-27.7-8.6-29.9-10-57.9-21.7-88-37-18.6-9.4-43.3-23.1-44.5-24.5-.3-.4-1.3-.9-2.2-1.3-1.2-.4-2 .4-3.1 3.1-1.5 3.8-4.7 10.9-9.4 20.9-1.4 3.2-2.7 6.2-2.9 6.8-.1.5-2.8 6.6-5.9 13.5-3.1 6.9-6.2 13.8-6.9 15.5-6.4 14.5-9 20.2-9.9 21.2-.5.7-.7 1.3-.4 1.3.2 0-.8 2.6-2.3 5.7-2.2 4.5-2.6 6.1-1.7 7.2 1.5 1.8 18.5 13.1 19.7 13.1.6 0 1 .4 1 1 0 .5.4 1 .9 1 .6 0 4.7 2.2 9.3 5 4.6 2.7 8.8 5 9.5 5 .6 0 1.3.4 1.5.9.6 1.6 31.2 16.3 50.3 24.1 1.1.4 3.7 1.6 5.9 2.5 2.1.9 5 2.1 6.5 2.5 1.4.5 7.1 2.5 12.6 4.5s10.7 3.8 11.5 4c.8.2 2.9.8 4.5 1.4 16.5 5.3 46.4 13 63.5 16.5 18.3 3.7 18.3 3.6 21.2 4.1 1.5.2 5.3.8 8.5 1.4 3.2.6 7.8 1.3 10.3 1.7 2.5.3 5.6.8 7 1 1.4.2 4.3.6 6.5.9 2.2.2 5.6.7 7.5.9 9.3 1.4 16.3 2.2 28 3.1 2.5.2 7.2.6 10.5.9 22.4 2.1 46.6 3 85 2.9 34.6 0 56.5-.6 68.5-1.8 2.5-.2 8.1-.7 12.5-1.1 13.8-1.1 19.6-1.7 27.1-2.9 1.1-.2 5.2-.7 9-1.1 6.8-.8 7.7-.9 9.2-1.4.4-.1 1-.2 1.4-.1.3 0 4.1-.6 8.5-1.5 4.3-.8 8.9-1.7 10.3-1.9 1.4-.1 7.1-1.3 12.5-2.5 5.5-1.2 10.8-2.3 11.9-2.6 1-.2 4.4-1.1 7.5-2 3.1-.9 6.4-1.8 7.4-2 4.1-.9 5.6-1.4 12.2-3.5 3.9-1.3 7.2-2.3 7.5-2.4.7-.2 1.9-.7 12-4.5 4.7-1.7 9-3.3 9.5-3.4 1.7-.5 6.9-2.7 9.9-4.2 1.6-.8 3.5-1.4 4.3-1.4.7 0 1.3-.5 1.3-1 0-.6.5-1 1.1-1 3.4 0 29.2-14.6 42.3-23.9 4.3-3.1 8.5-6.1 9.4-6.6 1.9-1.2 2.1-1.3 10.8-9 10.9-9.7 23.4-22.8 23.4-24.5 0-.6.4-1 .8-1 .8 0 5.9-6.9 11.7-15.8 7.3-11.2 14.8-27.5 18.6-40.2 4.1-13.9 5.5-19.6 6.4-26.5.3-2.8.8-5.9 1.1-7 .2-1.1.6-5.8.9-10.5.2-4.7.5-8.7.6-9 .1-.7.1-18.5-.1-18.5-.1 0-.3-3.1-.6-6.9-.5-7.6-3.7-28.1-4.4-28.1-.1 0-.4-1.1-.6-2.5-1-5.3-6.8-21-11-29.4-12-24.5-32.8-46.6-59.4-63.3-6.5-4-24.8-13.9-26.3-14.1-.4 0-3.2-1.2-6.2-2.6-6.6-3.2-27.2-10.8-34-12.6-2.7-.7-5.4-1.6-6-1.9-2.3-1.3-39.2-10.7-45.3-11.5-1.5-.2-3.4-.6-4.2-.9-1.8-.6-19.4-3.8-23.5-4.3-1.6-.1-5.6-.8-8.8-1.4-3.1-.6-7.2-1.3-9-1.5-1.7-.2-5.4-.6-8.2-1-2.7-.3-6.3-.8-8-1-1.6-.2-3-.4-3-.5 0-.1-2.7-.3-6-.6-3.3-.2-7.8-.6-10-.9-2.2-.3-6-.7-8.5-.9-2.5-.2-7.6-.6-11.5-1-3.8-.4-9.9-.9-13.5-1.1-3.6-.3-9.4-.7-13-1-3.6-.3-9.4-.8-13-1-3.6-.2-9.6-.7-13.5-1-16.4-1.2-21.4-1.6-28-2-3.8-.2-10.4-.7-14.5-1-4.2-.3-10.9-.7-15-1-18.2-1.1-26-1.5-32.5-2-3.8-.3-10.4-.7-14.5-1-4.1-.3-9.7-.7-12.5-1-2.7-.3-7.7-.7-11-1-9.7-.8-14.9-1.4-17-1.8-1.1-.3-5.1-.8-8.8-1.2-3.7-.3-7.8-.8-9-1.1-1.2-.3-3.8-.7-5.7-.9-5.7-.7-24.8-4.4-31.7-6.1-3.5-.9-6.9-1.7-7.6-1.8-.7-.2-1.9-.5-2.7-.9-.8-.3-5.8-2-11-3.7-17.9-6-33.9-15.1-43.4-24.6-12.1-12.1-16.9-24.2-16.8-41.9 0-8.7 1.6-15.5 5.3-24 2-4.4 8-13.5 9-13.5.5 0 .9-.6 1-1.3 0-1.5 10.7-10.7 18.5-15.9 6.2-4.1 26.2-14.2 30.4-15.3 1.4-.3 3.4-1 4.5-1.4 4-1.6 9.1-3.3 12.5-4.2 1.9-.5 4.3-1.2 5.3-1.4 1.7-.5 3.9-1 8-2.1 1.2-.3 3.1-.7 4.2-.9 5.2-.9 8.2-1.6 10.5-2.2 1.4-.3 3.6-.7 5-.8 3.3-.3 11.1-1.5 13-2 .8-.2 4.2-.7 7.5-1 3.3-.3 7.4-.7 9-1 3.6-.4 16.8-1.4 28-2.2 10.9-.7 71.2-.6 80.5.1 23.2 1.8 30.1 2.4 44 4.2 5.3.6 10.3 1.4 13 1.9 1.3.3 4.2.7 6.5 1.1 4.1.6 22 3.9 26.5 4.9 1.4.3 3.9.8 5.5 1 1.7.3 3.7.8 4.5 1 .8.2 2.6.6 4 .9 7.1 1.4 35.1 8.8 39 10.3.8.3 2 .7 2.6.8 4.9 1.1 25.2 7.8 36.4 12 1.9.7 6.9 2.5 11 4s8.9 3.3 10.5 4c12.7 5.5 26.1 10.9 26.8 10.7.4-.1.7.2.7.8 0 .5.4 1 .9 1s2.5.7 4.5 1.5 3.8 1.5 4.1 1.5c.3-.1 1.7.8 3.2 2 1.4 1.1 2.9 2 3.4 2s5.1 2.1 10.4 4.7c5.2 2.5 9.7 4.4 9.9 4.2.4-.4 12.9-23.7 20.2-37.4 9.9-18.9 13.5-25.5 18.3-34.5 8.4-15.5 8.8-16.3 7.3-16.8-.7-.2-1.8-.9-2.5-1.5-1.3-1.2-3-2.3-10.1-6.2-2.3-1.2-6.7-3.6-9.8-5.4-13.8-7.6-37.1-18.7-37.4-17.9-.1.2-1.2-.6-2.4-1.7s-2.5-1.9-2.9-1.7c-.3.1-5.8-1.8-12.1-4.4-16.8-6.8-18.7-7.5-20.2-7.9-.5-.2-1-.4-1.3-.5-.3-.1-.8-.3-1.2-.4-.5-.1-1.2-.4-1.8-.7-.5-.3-3-1.1-5.5-1.8s-5.4-1.7-6.5-2.1c-3.2-1.3-5.5-2-14.5-4.6-4.7-1.4-9.2-2.7-10-3.1-.8-.3-2.1-.7-2.9-.9-.8-.1-2.5-.5-3.8-.9-1.3-.3-2.5-.6-2.8-.6-.2 0-1.9-.5-3.7-1.1-3-.9-7.6-2-13.8-3.4-1.4-.3-4.1-.9-6-1.4-1.9-.5-5.1-1.2-7-1.5-1.9-.3-5.1-1-7-1.5-1.9-.5-5.1-1.1-7-1.4-1.9-.4-9.8-1.7-17.5-3.1-7.7-1.4-16.2-2.8-19-3.1-8.6-.9-10.9-1.2-15.5-1.8-2.5-.3-7-.8-10-1.1-3-.3-7.1-.7-9-.9-1.9-.2-7.8-.7-13-1.1-5.2-.4-11.5-.9-14-1.2-5.3-.5-90.7-1.3-91.2-.8zM769.4 415.4c-.2.6-.3 23.4-.2 50.6l.3 49.5 7.1.1c4 .1 7.9.4 8.7.7.8.3 1.8.3 2.1 0 .3-.3 5.2-.5 10.8-.4 5.7.1 11 .1 11.8.1.8 0 11.9 0 24.5.1H859c.8-.1 11.4-.1 23.5-.1 12.1.1 22.7.1 23.5 0 .8 0 11.9 0 24.5.1H955c.8-.1 11.4-.1 23.5-.1 12.1.1 22.7.1 23.5 0 .8 0 11.9 0 24.5.1h24.5c.8-.1 11.4-.1 23.5-.1 12.1.1 22.7.1 23.5 0 .8 0 11.9 0 24.5.1h24.5c.8-.1 11.4-.1 23.5-.1 12.1.1 22.7.1 23.5 0 .8 0 11.9 0 24.5.1h24.5c.8-.1 11.4-.1 23.5-.1 12.1.1 22.7.1 23.5 0 .8 0 11.9 0 24.5.1h24.5c.8-.1 11.4-.1 23.5-.1 12.1.1 22.7.1 23.5 0 .8 0 11.9 0 24.5.1h24.5c.8-.1 11.4-.1 23.5-.1 12.1.1 22.7.1 23.5 0 .8 0 9.7 0 19.8-.1l18.2-.1V414.4h-375.1c-264.2 0-375.2.3-375.5 1zM1091.2 848.4l.3 241.1 54 .2c29.7.1 54.9 0 56-.2 2-.4 2-1.2 1.9-241.2V607.5l-56.2-.1-56.2-.2.2 241.2z"/></svg>