<svg id="Ebene_1" data-name="Ebene 1" xmlns="http://www.w3.org/2000/svg" viewBox="0 0 473.09 169.3"><defs><style>.cls-1{fill:#b2b2b2}</style></defs><path class="cls-1" d="M249.3 309.6a9.41 9.41 0 0 1-10.21 10.21 6.43 6.43 0 0 1-4.42-1.36 5.52 5.52 0 0 1-1.53-4.09 6.89 6.89 0 0 1 1.19-3.74 10 10 0 0 1 4.42-2.21l3.92-.85a31.73 31.73 0 0 0 6.63-2.22zm11.07.51v-15.49a10.94 10.94 0 0 0-4.94-9.53q-4.77-3.22-14.29-3.23-8.52 0-13.11 3.91a13.17 13.17 0 0 0-4.77 8.68h11.41a4.59 4.59 0 0 1 2.72-2.55 12.52 12.52 0 0 1 4.26-.68 17.54 17.54 0 0 1 4.85.76 3.23 3.23 0 0 1 2.63 3.32q0 3.4-7.48 4.43a26.46 26.46 0 0 0-2.73.42 10 10 0 0 1-2 .26 24.07 24.07 0 0 0-10.64 4.08q-4.17 3.06-4.17 10.21 0 7.67 4.6 11a17.84 17.84 0 0 0 10.68 3.3 66 66 0 0 0 7.06-.43 20.83 20.83 0 0 0 7.58-2.29 15.18 15.18 0 0 0 5.87-5.53q2.46-3.84 2.47-10.64m-54.1-9.19h-17.36a9.81 9.81 0 0 1 2.56-6.81 8.27 8.27 0 0 1 6.12-2.38 8.17 8.17 0 0 1 6.3 2.38c1.36 1.48 2.15 3.74 2.38 6.81m12.26 6.47v-1.88q0-11.22-5.45-17.53-5.61-6.12-15.83-6.12-9.69 0-15.14 6.29-5.28 6.14-5.28 17 0 11.41 5.45 17.53 5.44 6.3 15.14 6.3 8 0 13.28-3.91a18.63 18.63 0 0 0 7.15-10.9h-8.51a5.11 5.11 0 0 0-3.15.85 3.71 3.71 0 0 0-1.28 1.37l-.93.93a2.35 2.35 0 0 1-.94.6 9.69 9.69 0 0 1-4.94 1.19q-4.42 0-6.63-2.72c-1.59-1.71-2.44-4.31-2.56-7.83h29.45a3 3 0 0 0 .17-1.19m122.57-6.45h-17.36a9.76 9.76 0 0 1 2.55-6.81 8.29 8.29 0 0 1 6.13-2.38 8.18 8.18 0 0 1 6.3 2.38c1.36 1.48 2.15 3.74 2.38 6.81m12.25 6.47v-1.88q0-11.22-5.44-17.53-5.62-6.12-15.83-6.12-9.7 0-15.15 6.29-5.28 6.14-5.27 17 0 11.41 5.44 17.53 5.44 6.3 15.15 6.3 8 0 13.27-3.91a18.59 18.59 0 0 0 7.15-10.9h-8.51a5.13 5.13 0 0 0-3.16.83 3.74 3.74 0 0 0-1.27 1.37l-.94.93a2.25 2.25 0 0 1-.93.6 9.71 9.71 0 0 1-4.94 1.19q-4.43 0-6.64-2.72c-1.59-1.71-2.44-4.31-2.55-7.83h29.44a3 3 0 0 0 .17-1.19m16.54 20.8v-23.32q0-5.1 2.39-7.49c1.58-1.58 4-2.38 7.31-2.38h3.92v-12.08h-1.7a33.81 33.81 0 0 0-8.94 1.19 21 21 0 0 0-7.57 3.74 18.44 18.44 0 0 0-5.36 7.24 27.88 27.88 0 0 0-2 11.14v22zm13.79-14.47q0 7.5 4.94 11.41 4.75 3.92 14.46 3.91 10.21 0 15.32-3.74c3.63-2.73 5.45-6.58 5.45-11.58a10.73 10.73 0 0 0-3.24-8.17c-2.27-1.92-6.3-3.63-12.08-5.1a6.88 6.88 0 0 1-1.45-.17 17.37 17.37 0 0 1-1.79-.51q-8.85-1.87-8.85-4.6a3.42 3.42 0 0 1 1.54-3.06 10.1 10.1 0 0 1 5.1-1 9.19 9.19 0 0 1 5.62 1.53l1.36 1.36a5.4 5.4 0 0 0 4.94 2.89h7.31a15 15 0 0 0-5.3-11.08q-5.28-3.91-14.13-3.91-8.16 0-13.27 3.91a13.53 13.53 0 0 0-4.94 10.72 10.44 10.44 0 0 0 3.4 8.17c2.05 2 6.07 3.8 12.09 5.28a32.51 32.51 0 0 0 4.59 1q7.16 1.53 7.15 4.59a3.61 3.61 0 0 1-2 3.24 11 11 0 0 1-5.29 1.23 12.12 12.12 0 0 1-6.8-1.7 6.27 6.27 0 0 1-2.56-5.11h-11.57zM457 300a23.44 23.44 0 0 1 .43 4.68v23.49h11.4v-26.4q0-7.83-3.23-12.25a19.2 19.2 0 0 0-8-6.47 17.24 17.24 0 0 0-10.72-.68 13.49 13.49 0 0 0-8.68 6.46v-13.44a5.8 5.8 0 0 0-5.79-5.79h-5.79v58.55h11.58v-23.32q0-6 2.55-9.36a8.59 8.59 0 0 1 7.32-3.4 8.14 8.14 0 0 1 7 3.57A11.69 11.69 0 0 1 457 300m18-30.4h6.12a5.8 5.8 0 0 1 5.79 5.79V279H475zm0 58.55h11.91v-39.49a5.8 5.8 0 0 0-5.79-5.78H475zm48.94-22.47q0 6.13-2.56 9.7a8.11 8.11 0 0 1-7 3.58 8.43 8.43 0 0 1-7.32-3.58q-2.56-3.22-2.56-9.7 0-7 2.39-10.21a8.27 8.27 0 0 1 7.14-3.57 8.45 8.45 0 0 1 7.32 3.57q2.55 3.57 2.56 10.21m11.74-.51q0-10.38-5.11-17a16.06 16.06 0 0 0-6.89-4.68 24.65 24.65 0 0 0-8.59-1.61 28.08 28.08 0 0 0-15.15 4.34q-7 4.33-7 16.25v42.38h5.79a5.8 5.8 0 0 0 5.78-5.79v-16.87a12.82 12.82 0 0 0 5.45 5.28 17.3 17.3 0 0 0 7.49 1.53 15.94 15.94 0 0 0 13.1-6.47q5.11-6.63 5.11-17.36m-320.98-86.62a5.49 5.49 0 0 0-4.17 1.7 5.73 5.73 0 0 0-1.62 4.09v23.15q0 4.08-2.47 5.95a8.9 8.9 0 0 1-5.53 1.87 8.58 8.58 0 0 1-5.45-1.87q-2.39-1.87-2.38-5.95v-28.94h-11.91v26.55q0 11.75 6 15.49a27.23 27.23 0 0 0 13.36 4.08 26.47 26.47 0 0 0 13.79-3.74q6.28-3.74 6.29-15.83v-26.55zM245.12 255h-3.57q-3.41 0-3.4-2.89v-25.22h1.19a5.73 5.73 0 0 0 4.08-1.61 5.49 5.49 0 0 0 1.7-4.18v-2.38h-7v-7.66a5.55 5.55 0 0 0-1.71-4.08 5.39 5.39 0 0 0-3.91-1.7h-6.1v50q0 7.83 6.56 8.34a87.81 87.81 0 0 0 12.16.17zm38.48-36.45a5.52 5.52 0 0 0-4.17 1.7 5.72 5.72 0 0 0-1.61 4.09v23.15c0 2.72-.83 4.7-2.47 5.95a8.92 8.92 0 0 1-5.53 1.87 8.58 8.58 0 0 1-5.45-1.87q-2.39-1.87-2.38-5.95v-28.94h-11.92v26.55q0 11.75 6.05 15.49a27.2 27.2 0 0 0 13.36 4.08 26.43 26.43 0 0 0 13.78-3.74q6.3-3.74 6.3-15.83v-26.55z" transform="translate(-62.59 -202.7)"/><path class="cls-1" d="M320 218.55h-.85a33.81 33.81 0 0 0-8.94 1.19 21.16 21.16 0 0 0-7.57 3.75 18.41 18.41 0 0 0-5.36 7.23 27.94 27.94 0 0 0-2 11.15v46.75a16.12 16.12 0 0 0-5.29-5.06 16.61 16.61 0 0 0-20.6 4.93q-4.94 6.48-4.93 17.19 0 10.9 4.93 17.19a14.27 14.27 0 0 0 6.81 4.68A26.66 26.66 0 0 0 285 329a28.64 28.64 0 0 0 15.15-4.25q7-4.26 7-16.34l.18-30.57v-37.33c0-3.41.8-5.9 2.39-7.49s4-2.38 7.31-2.38h3.92v-12.09zm-26.91 97a8.26 8.26 0 0 1-7.15 3.58 8.44 8.44 0 0 1-7.32-3.58q-2.55-3.57-2.55-10.38 0-6.12 2.55-9.53a8.14 8.14 0 0 1 7-3.57 8.88 8.88 0 0 1 7.32 3.4q2.55 3.57 2.55 9.7.02 6.83-2.36 10.38zm57.41-78.96h-17.36a9.78 9.78 0 0 1 2.56-6.8 8.27 8.27 0 0 1 6.12-2.39 8.17 8.17 0 0 1 6.3 2.39q2 2.21 2.38 6.8m12.26 6.47v-1.87q0-11.24-5.45-17.53-5.61-6.14-15.83-6.13-9.69 0-15.14 6.3-5.28 6.12-5.28 17 0 11.4 5.45 17.53 5.44 6.3 15.14 6.29 8 0 13.28-3.91a18.61 18.61 0 0 0 7.15-10.89h-8.51a5 5 0 0 0-3.15.85 3.7 3.7 0 0 0-1.28 1.36l-.93.94a2.44 2.44 0 0 1-.94.59 9.59 9.59 0 0 1-4.94 1.19c-2.95 0-5.16-.9-6.63-2.72s-2.44-4.31-2.56-7.83h29.45a2.94 2.94 0 0 0 .17-1.19" transform="translate(-62.59 -202.7)"/><path d="M68.49 250.06h67.45a5.93 5.93 0 0 1 5.9 6v67.44a5.91 5.91 0 0 1-5.9 5.91H68.49a5.92 5.92 0 0 1-5.9-5.91V256a5.93 5.93 0 0 1 5.9-6" transform="translate(-62.59 -202.7)" fill="#fbbd48"/><path d="M93.9 313.08h16.62l-7.19-27.3H101zm19 3.7H91.51a1.85 1.85 0 0 1-1.46-.71 1.88 1.88 0 0 1-.33-1.6l8-31a1.85 1.85 0 0 1 1.79-1.39h5.23a1.85 1.85 0 0 1 1.79 1.38l8.17 31a1.84 1.84 0 0 1-1.79 2.32m-10.69-50.55a3.84 3.84 0 1 0 3.83 3.83 3.84 3.84 0 0 0-3.83-3.83m0 11.37a7.54 7.54 0 1 1 7.53-7.54 7.55 7.55 0 0 1-7.53 7.54" transform="translate(-62.59 -202.7)" fill="#fff"/><path class="cls-1" d="M168.51 328.27V227.21h1.7a5.65 5.65 0 0 0 5.61-5.78v-2.56h-7.31v-3.06a3.37 3.37 0 0 1 .85-2.72 6.3 6.3 0 0 1 3.4-.68h3.06V203a19.11 19.11 0 0 0-2.89-.17 17.72 17.72 0 0 0-2.72-.17q-7 0-10 2.9-3.24 3.06-3.24 9.19v113.52zm310.06 25.42a2.41 2.41 0 0 1 1.58.5 2.3 2.3 0 0 1 .74 1.42 7.17 7.17 0 0 1 .06.85c0 .11-.05.16-.15.16h-5.13c-.08 0-.12-.05-.12-.16a7.26 7.26 0 0 1 .34-1 2.74 2.74 0 0 1 2.68-1.8m6.54 2.77a7.07 7.07 0 0 0-1.59-4.73A5.71 5.71 0 0 0 479 350a7.26 7.26 0 0 0-4.2 1.29 7.89 7.89 0 0 0-2.82 3.44 9.21 9.21 0 0 0-.82 3.24 14.42 14.42 0 0 0-.09 1.56 8.15 8.15 0 0 0 .24 2.16 5.62 5.62 0 0 0 2.14 3.33 6.83 6.83 0 0 0 4.15 1.19 8.8 8.8 0 0 0 3.46-.69 7.56 7.56 0 0 0 2.76-1.93.43.43 0 0 0 .13-.28.42.42 0 0 0-.1-.24l-1.85-2.21c-.14-.18-.29-.16-.46.06a4.18 4.18 0 0 1-3.2 1.59c-1.55 0-2.52-.57-2.93-1.71a5.59 5.59 0 0 1-.18-1.22.13.13 0 0 1 .15-.15h9.16a.42.42 0 0 0 .42-.37 17.67 17.67 0 0 0 .19-2.6m-23.2 9.47h3.45a.36.36 0 0 0 .26-.11.5.5 0 0 0 .13-.26l1.84-15a.3.3 0 0 0-.06-.26.33.33 0 0 0-.25-.1h-3.45a.35.35 0 0 0-.26.1.53.53 0 0 0-.13.26l-1.87 15c0 .24.12.37.34.37m3.91-17.46a2.5 2.5 0 0 0 1.87-.81 2.74 2.74 0 0 0 .78-2 2 2 0 0 0-.56-1.49 2.06 2.06 0 0 0-1.51-.55 2.58 2.58 0 0 0-1.88.77 2.68 2.68 0 0 0-.78 2 2 2 0 0 0 .58 1.5 2.07 2.07 0 0 0 1.5.58M454 350a5.57 5.57 0 0 0-2.57.61 5.31 5.31 0 0 0-2 1.87c-.09.12-.15.12-.19 0a3.59 3.59 0 0 0-1.49-1.84 5.21 5.21 0 0 0-6.5 1.23c0 .06-.09.08-.13.06s-.05-.06 0-.12l.13-1.2a.28.28 0 0 0-.07-.26.3.3 0 0 0-.24-.1h-3.45a.35.35 0 0 0-.26.1.66.66 0 0 0-.14.26l-1.83 15a.3.3 0 0 0 .06.26.34.34 0 0 0 .25.11H439a.36.36 0 0 0 .26-.11.5.5 0 0 0 .13-.26l1.2-9.68a3 3 0 0 1 1-1.61 2.5 2.5 0 0 1 1.65-.58 1.9 1.9 0 0 1 1.46.59 2.31 2.31 0 0 1 .55 1.64 3 3 0 0 1 0 .48l-1.1 9.16a.27.27 0 0 0 .07.26.3.3 0 0 0 .24.11h3.42a.36.36 0 0 0 .26-.11.6.6 0 0 0 .14-.26l1.12-9.19a3.29 3.29 0 0 1 .9-1.95 2.47 2.47 0 0 1 1.79-.73 1.84 1.84 0 0 1 1.44.59 2.38 2.38 0 0 1 .51 1.6 3.36 3.36 0 0 1 0 .52l-1.1 9.16a.27.27 0 0 0 .07.26.3.3 0 0 0 .24.11h3.45a.4.4 0 0 0 .27-.11.35.35 0 0 0 .13-.26l1.25-10.1a7.17 7.17 0 0 0 .06-1.07 4.48 4.48 0 0 0-1.13-3.24A4.24 4.24 0 0 0 454 350m-28.44 3.7a2.38 2.38 0 0 1 1.57.5 2.27 2.27 0 0 1 .75 1.42 7.17 7.17 0 0 1 .06.85c0 .11-.05.16-.15.16h-5.13c-.08 0-.12-.05-.12-.16a8.6 8.6 0 0 1 .33-1 2.75 2.75 0 0 1 2.69-1.8m6.53 2.77a7 7 0 0 0-1.59-4.73A5.67 5.67 0 0 0 426 350a7.24 7.24 0 0 0-4.2 1.29 7.89 7.89 0 0 0-2.82 3.44 9.22 9.22 0 0 0-.83 3.24 14.42 14.42 0 0 0-.09 1.56 8.15 8.15 0 0 0 .24 2.16 5.62 5.62 0 0 0 2.14 3.33 6.85 6.85 0 0 0 4.15 1.19 8.84 8.84 0 0 0 3.47-.69 7.73 7.73 0 0 0 2.76-1.93.41.41 0 0 0 .12-.28.4.4 0 0 0-.09-.24l-1.85-2.21c-.15-.18-.3-.16-.46.06a4.21 4.21 0 0 1-3.21 1.59c-1.54 0-2.52-.57-2.93-1.71a5.59 5.59 0 0 1-.18-1.22.13.13 0 0 1 .15-.15h9.16a.43.43 0 0 0 .43-.37 17.41 17.41 0 0 0 .18-2.6m-23.5 4.7a2.66 2.66 0 0 1-2.23 1.32 2 2 0 0 1-2-1.32 5.41 5.41 0 0 1-.34-2c0-.22 0-.56.06-1a6.68 6.68 0 0 1 1.16-3.23 2.56 2.56 0 0 1 2.23-1.19 1.94 1.94 0 0 1 1.86 1.19 5 5 0 0 1 .34 1.92 10.1 10.1 0 0 1-.09 1.28 7.16 7.16 0 0 1-1 3.08m2.62-16.23l-.79 6.53a.19.19 0 0 1-.09.12s-.07 0-.09-.06a3.54 3.54 0 0 0-3.15-1.53 6.36 6.36 0 0 0-3.75 1.15 7.63 7.63 0 0 0-2.53 3.1 13.93 13.93 0 0 0-1 3.78q-.12 1.23-.12 1.77a9.93 9.93 0 0 0 .18 1.92 5.55 5.55 0 0 0 1.69 3.24 5 5 0 0 0 3.42 1.19 4.55 4.55 0 0 0 3.6-1.68q.18-.15.18.06l-.12 1a.3.3 0 0 0 .06.26.31.31 0 0 0 .25.11h3.48a.34.34 0 0 0 .25-.11.45.45 0 0 0 .14-.26l2.54-20.63a.27.27 0 0 0-.07-.26.3.3 0 0 0-.24-.11h-3.48a.36.36 0 0 0-.26.11.51.51 0 0 0-.14.26m-20.51 15.74a3.19 3.19 0 0 1-1 1.31 2.55 2.55 0 0 1-1.54.49 2.25 2.25 0 0 1-1.47-.49 2.2 2.2 0 0 1-.73-1.31 4 4 0 0 1-.15-1.1 11 11 0 0 1 .12-1.5 7.44 7.44 0 0 1 .67-2.62 3.17 3.17 0 0 1 1.06-1.28 2.59 2.59 0 0 1 1.57-.49 2.08 2.08 0 0 1 1.4.47 2.14 2.14 0 0 1 .7 1.27 4.93 4.93 0 0 1 .19 1.25 8.89 8.89 0 0 1-.13 1.43 11.58 11.58 0 0 1-.27 1.56 4.53 4.53 0 0 1-.4 1m1.59-10.08l-.12 1.13c0 .09-.05.13-.08.13s-.06 0-.1-.1a3.38 3.38 0 0 0-3.33-1.77 6.22 6.22 0 0 0-3.68 1.16 7.3 7.3 0 0 0-2.46 3 14.56 14.56 0 0 0-1 3.91 18.29 18.29 0 0 0-.16 2.23 8.08 8.08 0 0 0 .1 1.31 5.33 5.33 0 0 0 1.67 3.34 4.79 4.79 0 0 0 3.33 1.24 4.68 4.68 0 0 0 4-2c0-.06.08-.09.12-.08s.05.06 0 .14l-.15 1.31a.3.3 0 0 0 .06.26.3.3 0 0 0 .24.11h3.48a.35.35 0 0 0 .26-.11.51.51 0 0 0 .14-.26l1.83-15a.3.3 0 0 0-.06-.26.3.3 0 0 0-.24-.1h-3.48a.35.35 0 0 0-.26.1.55.55 0 0 0-.14.26M365 365.93h3.45a.36.36 0 0 0 .26-.11.51.51 0 0 0 .14-.26l.55-4.46a.17.17 0 0 1 0-.1l.06-.08 2.2-2.44a.09.09 0 0 1 .11-.05.08.08 0 0 1 .07.08l2.08 7.14a.36.36 0 0 0 .36.28H378c.22 0 .33-.1.33-.28a.33.33 0 0 0 0-.15l-3.23-9.68a.48.48 0 0 1 .06-.21l4.36-4.91a.41.41 0 0 0 .12-.28q0-.18-.27-.18h-3.94a.67.67 0 0 0-.46.21l-4.64 4.82a.11.11 0 0 1-.12.05s-.05-.05 0-.11l1.25-10.28a.3.3 0 0 0-.06-.26.3.3 0 0 0-.24-.11h-3.45a.45.45 0 0 0-.28.11.34.34 0 0 0-.12.26l-2.53 20.63a.3.3 0 0 0 .06.26.3.3 0 0 0 .24.11m-8.91-5.25a3.19 3.19 0 0 1-1 1.31 2.55 2.55 0 0 1-1.54.49 2.25 2.25 0 0 1-1.47-.49 2.2 2.2 0 0 1-.73-1.31 4 4 0 0 1-.15-1.1 11 11 0 0 1 .12-1.5 7.44 7.44 0 0 1 .67-2.62 3.17 3.17 0 0 1 1.06-1.28 2.59 2.59 0 0 1 1.57-.49 2.1 2.1 0 0 1 1.4.47 2.14 2.14 0 0 1 .7 1.27 5.43 5.43 0 0 1 .19 1.25 8.89 8.89 0 0 1-.13 1.43 11.58 11.58 0 0 1-.27 1.56 5.06 5.06 0 0 1-.4 1m1.59-10.08l-.12 1.13c0 .09 0 .13-.08.13s-.07 0-.11-.1a3.36 3.36 0 0 0-3.32-1.77 6.22 6.22 0 0 0-3.68 1.16 7.3 7.3 0 0 0-2.46 3 14.19 14.19 0 0 0-1 3.91 18.29 18.29 0 0 0-.16 2.23 9.4 9.4 0 0 0 .09 1.31 5.39 5.39 0 0 0 1.68 3.34 4.79 4.79 0 0 0 3.33 1.24 4.68 4.68 0 0 0 4-2c0-.06.08-.09.12-.08s.05.06 0 .14l-.15 1.31a.3.3 0 0 0 .06.26.3.3 0 0 0 .24.11h3.48a.36.36 0 0 0 .26-.11.51.51 0 0 0 .14-.26l1.83-15a.3.3 0 0 0-.06-.26.3.3 0 0 0-.24-.1h-3.48a.34.34 0 0 0-.26.1.55.55 0 0 0-.14.26m-36 21.4h.19a12.21 12.21 0 0 0 4-.52 5.35 5.35 0 0 0 2.37-1.63 15.41 15.41 0 0 0 1.92-3.34l7.08-15.88a.33.33 0 0 0 0-.3.24.24 0 0 0-.24-.12h-3.64a.45.45 0 0 0-.45.3l-3.7 9.89q0 .09-.09.09s-.07 0-.09-.09l-1.25-9.89c0-.2-.15-.3-.4-.3h-3.69c-.22 0-.34.1-.34.3v.12l3 15.2a.44.44 0 0 1 0 .19A3.36 3.36 0 0 1 325 368a6.23 6.23 0 0 1-2.71.5.34.34 0 0 0-.26.11.46.46 0 0 0-.13.26l-.37 2.8c0 .25.06.37.18.37m-1.55-21.79h-2.87q-.12 0-.12-.15l.06-.34a2.43 2.43 0 0 1 .56-1.51 2.28 2.28 0 0 1 1.51-.44h1a.36.36 0 0 0 .26-.11.51.51 0 0 0 .14-.26l.3-2.47c0-.25-.11-.37-.33-.37h-1.1a10.63 10.63 0 0 0-3.54.38 3.75 3.75 0 0 0-2 1.5 7 7 0 0 0-.93 2.94l-.09.68a.14.14 0 0 1-.16.15H311a.39.39 0 0 0-.27.1.35.35 0 0 0-.12.26l-.37 2.9a.29.29 0 0 0 .06.26.3.3 0 0 0 .24.11h1.74c.11 0 .16.05.16.15L311 365.56a.3.3 0 0 0 .06.26.33.33 0 0 0 .25.11h3.48a.36.36 0 0 0 .26-.11.5.5 0 0 0 .13-.26l1.45-11.56q.06-.15.18-.15h2.87a.36.36 0 0 0 .26-.11.47.47 0 0 0 .14-.26l.36-2.9a.28.28 0 0 0-.07-.26.35.35 0 0 0-.26-.1m-19.17 15.72h3.45a.36.36 0 0 0 .26-.11.51.51 0 0 0 .14-.26l1.83-15a.3.3 0 0 0-.06-.26.32.32 0 0 0-.25-.1h-3.45a.37.37 0 0 0-.26.1.53.53 0 0 0-.13.26l-1.87 15c0 .24.12.37.34.37m3.91-17.46a2.48 2.48 0 0 0 1.87-.81 2.74 2.74 0 0 0 .78-2 2 2 0 0 0-.56-1.49 2.06 2.06 0 0 0-1.51-.55 2.58 2.58 0 0 0-1.88.77 2.68 2.68 0 0 0-.78 2 2 2 0 0 0 .58 1.5 2.07 2.07 0 0 0 1.5.58m-14.74 17.67a8.39 8.39 0 0 0 4.79-1.27 4.82 4.82 0 0 0 2.19-3.52 4.14 4.14 0 0 0 0-.58 3.12 3.12 0 0 0-1.07-2.52 8.53 8.53 0 0 0-2.93-1.48c-.31-.1-.83-.24-1.56-.43a10.3 10.3 0 0 1-1.89-.62.92.92 0 0 1-.58-.84 1.22 1.22 0 0 1 .68-1.1 3.38 3.38 0 0 1 1.73-.4 2.68 2.68 0 0 1 1.69.46 1.22 1.22 0 0 1 .54 1.13.3.3 0 0 0 .06.26.3.3 0 0 0 .24.11h3.18a.38.38 0 0 0 .26-.11.5.5 0 0 0 .13-.26 4 4 0 0 0 0-.58 3.81 3.81 0 0 0-1.54-3.16 6.65 6.65 0 0 0-4.19-1.21 8.69 8.69 0 0 0-3.51.68 5.56 5.56 0 0 0-2.45 1.92 4.88 4.88 0 0 0-.88 2.9 3 3 0 0 0 1 2.41 8.18 8.18 0 0 0 2.62 1.46c.51.21 1.21.44 2.11.71a8.36 8.36 0 0 1 1.58.53.8.8 0 0 1 .52.75 1.29 1.29 0 0 1-.68 1.11 3.11 3.11 0 0 1-1.73.45 3 3 0 0 1-1.77-.48 1.15 1.15 0 0 1-.58-1.14.3.3 0 0 0-.06-.26.3.3 0 0 0-.24-.11h-3.3a.36.36 0 0 0-.26.11.51.51 0 0 0-.14.26v.3a3.19 3.19 0 0 0 0 .49 3.44 3.44 0 0 0 1.62 2.95 7.72 7.72 0 0 0 4.43 1.11M276.25 350a4.57 4.57 0 0 0-3.82 1.77c0 .05-.07.06-.1 0a.17.17 0 0 1-.05-.13l.12-1.07a.3.3 0 0 0-.06-.26.3.3 0 0 0-.24-.1h-3.45a.35.35 0 0 0-.26.1.55.55 0 0 0-.14.26l-1.83 15a.3.3 0 0 0 .06.26.31.31 0 0 0 .25.11h3.45a.34.34 0 0 0 .25-.11.45.45 0 0 0 .14-.26l1.13-9.13a3.26 3.26 0 0 1 .92-2 2.57 2.57 0 0 1 1.86-.74 2 2 0 0 1 1.52.62 2.3 2.3 0 0 1 .58 1.64 2.72 2.72 0 0 1 0 .48l-1.13 9.13c0 .24.12.37.34.37h3.45a.36.36 0 0 0 .26-.11.51.51 0 0 0 .14-.26l1.22-10c0-.45.06-.76.06-.95a4.55 4.55 0 0 0-1.25-3.39 4.68 4.68 0 0 0-3.39-1.22m-18.47 15.94h3.45a.36.36 0 0 0 .26-.11.51.51 0 0 0 .14-.26l1.83-15a.3.3 0 0 0-.06-.26.3.3 0 0 0-.24-.1h-3.45a.34.34 0 0 0-.26.1.55.55 0 0 0-.14.26l-1.86 15c0 .24.11.37.33.37m3.91-17.46a2.52 2.52 0 0 0 1.88-.81 2.74 2.74 0 0 0 .78-2 2 2 0 0 0-.57-1.49 2.06 2.06 0 0 0-1.51-.55 2.6 2.6 0 0 0-1.88.77 2.68 2.68 0 0 0-.78 2 2 2 0 0 0 2.08 2.08m-7.78 1.51a4.13 4.13 0 0 0-3.45 1.84.1.1 0 0 1-.12 0s-.05-.06 0-.13l.12-1.16a.3.3 0 0 0-.06-.26.32.32 0 0 0-.25-.1h-3.48a.37.37 0 0 0-.26.1.53.53 0 0 0-.13.26l-1.83 15a.3.3 0 0 0 .06.26.3.3 0 0 0 .24.11h3.45a.36.36 0 0 0 .26-.11.51.51 0 0 0 .14-.26l1-8.33a2.81 2.81 0 0 1 1-1.89 3.24 3.24 0 0 1 1.9-.83 5.17 5.17 0 0 1 .64-.06 3 3 0 0 1 1 .15c.25.1.4 0 .46-.21l1-3.48c.08-.22 0-.38-.12-.46a2.79 2.79 0 0 0-1.65-.43m-12 3.3l.34-2.72a.3.3 0 0 0-.06-.26.32.32 0 0 0-.25-.1h-2.79a.13.13 0 0 1-.15-.15l.46-3.64a.29.29 0 0 0-.31-.36h-3.32a.35.35 0 0 0-.26.1.55.55 0 0 0-.14.26l-.46 3.64a.13.13 0 0 1-.15.15h-1.68a.39.39 0 0 0-.27.1.35.35 0 0 0-.12.26l-.34 2.72a.3.3 0 0 0 .06.26.31.31 0 0 0 .25.11h1.67c.13 0 .17.05.13.15l-1 8.18c0 .37-.06.63-.06.79a2.73 2.73 0 0 0 1.11 2.52 6.53 6.53 0 0 0 3.37.69q.59 0 1.8-.06a.42.42 0 0 0 .4-.4l.37-2.9a.28.28 0 0 0-.08-.26.36.36 0 0 0-.26-.11h-1a1.31 1.31 0 0 1-1.47-1.49 3.19 3.19 0 0 1 0-.49l.79-6.47c0-.1.11-.15.19-.15h2.84a.38.38 0 0 0 .26-.11.5.5 0 0 0 .13-.26M223.81 350a4.55 4.55 0 0 0-3.81 1.77c0 .05-.08.06-.11 0a.17.17 0 0 1 0-.13l.12-1.07a.3.3 0 0 0-.06-.26.32.32 0 0 0-.25-.1h-3.45a.37.37 0 0 0-.26.1.53.53 0 0 0-.13.26l-1.83 15a.3.3 0 0 0 .06.26.3.3 0 0 0 .24.11h3.45a.36.36 0 0 0 .26-.11.51.51 0 0 0 .14-.26l1.13-9.13a3.25 3.25 0 0 1 .91-2 2.59 2.59 0 0 1 1.86-.74 2 2 0 0 1 1.53.62 2.3 2.3 0 0 1 .58 1.64 2.72 2.72 0 0 1 0 .48l-1.19 9.12c0 .24.11.37.34.37h3.44a.35.35 0 0 0 .26-.11.51.51 0 0 0 .14-.26l1.22-10c0-.45.06-.76.06-.95a4.51 4.51 0 0 0-1.25-3.39 4.65 4.65 0 0 0-3.39-1.22m-18.46 15.94h3.45a.36.36 0 0 0 .26-.11.5.5 0 0 0 .13-.26l1.84-15a.28.28 0 0 0-.07-.26.3.3 0 0 0-.24-.1h-3.45a.35.35 0 0 0-.26.1.55.55 0 0 0-.14.26l-1.86 15c0 .24.11.37.34.37m3.91-17.46a2.5 2.5 0 0 0 1.87-.81 2.74 2.74 0 0 0 .78-2 2 2 0 0 0-.56-1.49 2.06 2.06 0 0 0-1.51-.55 2.58 2.58 0 0 0-1.88.77 2.68 2.68 0 0 0-.78 2 2 2 0 0 0 .58 1.5 2.07 2.07 0 0 0 1.5.58m-21.46 5.22a2.38 2.38 0 0 1 1.57.5 2.27 2.27 0 0 1 .75 1.42 7.17 7.17 0 0 1 .06.85c0 .11-.05.16-.15.16h-5.14c-.08 0-.12-.05-.12-.16a8.6 8.6 0 0 1 .33-1 2.75 2.75 0 0 1 2.69-1.8m6.53 2.77a7 7 0 0 0-1.59-4.73 5.67 5.67 0 0 0-4.51-1.77 7.24 7.24 0 0 0-4.2 1.29 7.89 7.89 0 0 0-2.82 3.44 9.22 9.22 0 0 0-.83 3.24 14.42 14.42 0 0 0-.09 1.56 7.72 7.72 0 0 0 .25 2.16 5.56 5.56 0 0 0 2.13 3.33 6.85 6.85 0 0 0 4.15 1.19 8.84 8.84 0 0 0 3.47-.69 7.65 7.65 0 0 0 2.76-1.93.41.41 0 0 0 .12-.28.4.4 0 0 0-.09-.24l-1.89-2.17c-.15-.18-.3-.16-.46.06a4.2 4.2 0 0 1-3.21 1.59c-1.54 0-2.52-.57-2.93-1.71a5.59 5.59 0 0 1-.18-1.22.13.13 0 0 1 .15-.15h9.16a.43.43 0 0 0 .43-.37 17.41 17.41 0 0 0 .18-2.6m-23.2 9.47h3.45a.36.36 0 0 0 .26-.11.51.51 0 0 0 .14-.26l1.83-15a.3.3 0 0 0-.06-.26.3.3 0 0 0-.24-.1h-3.45a.35.35 0 0 0-.26.1.55.55 0 0 0-.14.26l-1.86 15c0 .24.11.37.33.37m3.87-17.44a2.52 2.52 0 0 0 1.88-.81 2.74 2.74 0 0 0 .78-2 2 2 0 0 0-.57-1.49 2 2 0 0 0-1.51-.55 2.6 2.6 0 0 0-1.88.77 2.71 2.71 0 0 0-.77 2 2 2 0 0 0 2.07 2.08m-13.28 12.69a2.66 2.66 0 0 1-2.22 1.32 2 2 0 0 1-2-1.32 5.63 5.63 0 0 1-.33-2c0-.22 0-.56.06-1a6.68 6.68 0 0 1 1.16-3.23 2.56 2.56 0 0 1 2.23-1.19 1.94 1.94 0 0 1 1.86 1.19 5.15 5.15 0 0 1 .33 1.92 10.1 10.1 0 0 1-.09 1.28 7 7 0 0 1-1 3.08m2.63-16.23l-.79 6.53a.2.2 0 0 1-.1.12s-.07 0-.09-.06a3.54 3.54 0 0 0-3.14-1.53 6.32 6.32 0 0 0-3.75 1.15 7.65 7.65 0 0 0-2.54 3.1 14.3 14.3 0 0 0-1 3.78q-.12 1.23-.12 1.77a9.19 9.19 0 0 0 .19 1.92 5.55 5.55 0 0 0 1.74 3.27 5 5 0 0 0 3.41 1.19 4.55 4.55 0 0 0 3.61-1.68q.18-.15.18.06l-.12 1a.3.3 0 0 0 .06.26.3.3 0 0 0 .24.11h3.48a.36.36 0 0 0 .26-.11.51.51 0 0 0 .14-.26l2.53-20.63a.3.3 0 0 0-.06-.26.3.3 0 0 0-.24-.11h-3.48a.35.35 0 0 0-.26.11.51.51 0 0 0-.14.26" transform="translate(-62.59 -202.7)"/></svg>