<svg xmlns="http://www.w3.org/2000/svg" width="187.088" height="26.14"><g fill-rule="evenodd" clip-rule="evenodd"><path d="M0 11.523h2.343V7.052h8.073c5.016 0 5.044-2.511 5.044-3.536 0-1.975-.938-3.475-4.934-3.475H0v11.482zM9.507 1.189c2.894 0 3.61.291 3.61 2.495 0 2.235-1.599 2.22-4.712 2.22H2.343V1.19h7.164v-.001zm12.811.939h-1.916v9.395h1.916V2.128zm8.145 5.637h6.155c2.323 0 2.841.577 2.841 1.766v1.992h1.917V9.03c0-1.016-.834-1.616-2.728-1.691v-.025c2.683-.188 2.954-1.165 2.954-2.479 0-2.142-1.601-2.707-5.253-2.707h-7.803v9.395h1.917V7.765zm0-.94V3.067h5.907c3.021 0 3.314.451 3.314 1.653 0 1.554-.361 2.055-3.314 2.104h-5.907v.001zm21.653-4.772c-4.216.025-5.501.801-5.501 3.156v3.344c0 2.217 1.443 3.044 5.501 3.044h2.277c4.059 0 5.501-.827 5.501-3.044V5.209c0-2.355-1.286-3.131-5.501-3.156h-2.277zm2.277.94c2.841 0 3.585.388 3.585 2.217v3.344c0 1.867-1.105 2.092-3.585 2.104h-2.277c-2.479-.013-3.585-.238-3.585-2.104V5.21c0-1.829.744-2.217 3.585-2.217h2.277zM83.274.052h-2.341v10.487h-.056L69.303.052h-3.857v11.483h2.342V1.125h.055l11.602 10.41h3.829V.052zm27.345 3.028h5.479v-.94h-12.875v.94h5.478v8.455h1.918V3.08zm-20.264.866s-.106-.929 1.11-.911h7.841v-.94h-9.414c-1.458-.008-1.309 1.35-1.309 1.35v7.006s-.006 1.029 1.236 1.039h9.487v-.939h-7.772c-1.214.045-1.18-.813-1.18-.813V7.107h5.256V6.23h-5.256V3.946h.001z" fill="#346f67"/><path fill="#366f5c" d="M145.025 11.44h-3.816L129.648 1.068h-.054V11.44h-2.334V0h3.844l11.533 10.449h.054V0h2.334v11.44zm6.643-1.144V1.144h8.072c3.928 0 4.338 2.121 4.338 2.761v3.004c-.055 2.044-.604 3.386-4.721 3.386h-7.689v.001zm-2.332 1.144h10.57c6.178 0 6.506-3.173 6.506-4.301v-2.73c0-4.225-4.557-4.408-7.055-4.408h-10.021V11.44zm37.752 0h-2.334V6.178h-12.055v5.262h-2.332V0h2.332v5.033h12.055V0h2.334v11.44z"/><path d="M19.73 26.088h-.67v-4.447h.67v4.447zm0-5.615h-.67v-.738h.67v.738zm5.473 1.709h.017c.212-.531.864-.592 1.372-.592 1.144 0 1.694.305 1.678 1.541v2.957h-.67V23.08c0-.812-.314-.947-1.067-.947-1.093 0-1.33.338-1.33 1.363v2.592h-.671v-4.447h.671v.541zm10.233 0h-1.72v2.822c.008.484.135.592.627.592.627 0 .627-.328.627-.754v-.33h.636v.33c0 .883-.364 1.297-1.28 1.297-1.042 0-1.279-.297-1.279-1.338v-2.619h-.594v-.541h.594v-1.076h.668v1.076h1.72v.541h.001zm4.947 1.289c.052-1.025.093-1.338 1.305-1.338 1.016 0 1.169.076 1.203 1.338h-2.508zm2.517 1.272v.168c0 .627-.296.686-1.212.686-1.203 0-1.305-.178-1.305-1.582h3.203v-.449c0-1.645-.458-1.975-1.898-1.975-1.592 0-2 .432-2 2.277 0 1.695.263 2.271 2 2.271.991 0 1.898-.059 1.898-1.236v-.16H42.9zm5.921-3.102l-.034.551.017.018c.229-.492.763-.619 1.263-.619.855 0 1.236.424 1.236 1.254v.322h-.635v-.297c0-.551-.187-.736-.746-.736-.831 0-1.102.398-1.084 1.186v2.77h-.669v-4.447h.652v-.002zm7.498.541h.017c.212-.531.864-.592 1.372-.592 1.144 0 1.695.305 1.677 1.541v2.957h-.669V23.08c0-.812-.312-.947-1.067-.947-1.094 0-1.331.338-1.331 1.363v2.592h-.669v-4.447h.669v.541h.001zm8.438 1.289c.05-1.025.092-1.338 1.304-1.338 1.017 0 1.169.076 1.203 1.338h-2.507zm2.516 1.272v.168c0 .627-.297.686-1.212.686-1.203 0-1.304-.178-1.304-1.582h3.202v-.449c0-1.645-.458-1.975-1.898-1.975-1.592 0-1.999.432-1.999 2.277 0 1.695.263 2.271 1.999 2.271.992 0 1.898-.059 1.898-1.236v-.16h-.686zm7.709-2.561h-1.721v2.822c.009.484.136.592.627.592.627 0 .627-.328.627-.754v-.33h.635v.33c0 .883-.364 1.297-1.278 1.297-1.042 0-1.279-.297-1.279-1.338v-2.619H72v-.541h.593v-1.076h.668v1.076h1.721v.541zm12.971-.541v.541h-1.177v3.906h-.67v-3.906h-.678v-.541h.678v-.533c0-1.084.338-1.424 1.432-1.424.136 0 .279.008.415.018v.543a5.734 5.734 0 0 0-.415-.018c-.669 0-.762.219-.762.812v.602h1.177zm4.744 2.227c0-1.549.085-1.734 1.279-1.734 1.196 0 1.28.186 1.28 1.734 0 1.545-.084 1.729-1.28 1.729-1.194-.001-1.279-.184-1.279-1.729zm-.696 0c0 1.875.322 2.271 1.975 2.271 1.651 0 1.973-.396 1.973-2.271 0-1.879-.322-2.277-1.973-2.277-1.652-.001-1.975.398-1.975 2.277zm9.175-2.227l-.033.551.018.018c.229-.492.764-.619 1.262-.619.855 0 1.238.424 1.238 1.254v.322h-.635v-.297c0-.551-.188-.736-.746-.736-.832 0-1.104.398-1.084 1.186v2.77h-.67v-4.447h.65v-.002zm16.91 1.16h-.693v-.168c0-.451-.34-.451-1.043-.451-.838 0-1.244-.008-1.244.543 0 .797.219.738.914.771 1.145.068 2.186-.111 2.186 1.34 0 1.252-.863 1.303-1.855 1.303-.965 0-1.975-.051-1.975-1.041v-.416h.695v.348c0 .424.264.518 1.279.518.457 0 1.162.102 1.162-.688 0-.83-.348-.678-1.162-.727-.965-.068-1.939.031-1.939-1.229 0-1.289.738-1.314 1.939-1.314.781 0 1.736.033 1.736 1.043v.168zm7.652 2.696h-.02c-.236.541-.805.643-1.389.643-1.178 0-1.594-.475-1.594-1.643v-2.855h.67v2.855c0 .719.053 1.1.916 1.1.941 0 1.424-.15 1.424-1.211v-2.744h.668v4.447h-.676v-.592h.001zm9.192-1.018v.246c0 1.254-.832 1.414-1.889 1.414-1.848 0-1.977-.711-1.977-2.363 0-1.449.256-2.186 1.865-2.186 1.074 0 1.922.119 1.922 1.381v.119h-.668v-.135c0-.807-.439-.822-1.213-.822-1.184 0-1.209.406-1.209 1.83 0 1.252.049 1.633 1.354 1.633.838 0 1.145-.092 1.145-.896v-.221h.67zm8.267 0v.246c0 1.254-.83 1.414-1.891 1.414-1.846 0-1.973-.711-1.973-2.363 0-1.449.254-2.186 1.865-2.186 1.074 0 1.922.119 1.922 1.381v.119h-.668v-.135c0-.807-.441-.822-1.213-.822-1.186 0-1.211.406-1.211 1.83 0 1.252.051 1.633 1.355 1.633.838 0 1.143-.092 1.143-.896v-.221h.671zm5.125-1.008c.051-1.025.094-1.338 1.305-1.338 1.018 0 1.17.076 1.203 1.338h-2.508zm2.518 1.272v.168c0 .627-.297.686-1.213.686-1.203 0-1.305-.178-1.305-1.582h3.203v-.449c0-1.645-.457-1.975-1.898-1.975-1.592 0-1.998.432-1.998 2.277 0 1.695.262 2.271 1.998 2.271.992 0 1.898-.059 1.898-1.236v-.16h-.685zm8.879-1.942h-.695v-.168c0-.451-.34-.451-1.043-.451-.838 0-1.244-.008-1.244.543 0 .797.219.738.914.771 1.145.068 2.186-.111 2.186 1.34 0 1.252-.865 1.303-1.855 1.303-.965 0-1.973-.051-1.973-1.041v-.416h.693v.348c0 .424.262.518 1.279.518.459 0 1.162.102 1.162-.688 0-.83-.348-.678-1.162-.727-.965-.068-1.939.031-1.939-1.229 0-1.289.736-1.314 1.939-1.314.779 0 1.738.033 1.738 1.043v.168zm8.191 0h-.695v-.168c0-.451-.338-.451-1.043-.451-.84 0-1.246-.008-1.246.543 0 .797.221.738.916.771 1.145.068 2.188-.111 2.188 1.34 0 1.252-.865 1.303-1.857 1.303-.967 0-1.973-.051-1.973-1.041v-.416h.695v.348c0 .424.262.518 1.277.518.459 0 1.16.102 1.16-.688 0-.83-.346-.678-1.16-.727-.967-.068-1.939.031-1.939-1.229 0-1.289.736-1.314 1.939-1.314.781 0 1.738.033 1.738 1.043v.168z"/></g></svg>