<svg xmlns="http://www.w3.org/2000/svg" height="170.573" width="952.067"><g fill="#8a8888"><path d="M33.9 28.735v26.912h9.673c11.443 0 15.48-5.607 15.48-14.351 0-9.43-5.166-12.561-15.724-12.561zm29.415 104.141L49.408 96.064C44.238 82.37 41.32 80.556 33.9 80.556v52.32H0V.883h45.36c38.85 0 51.415 15.724 51.415 37.72 0 22.653-11.906 34.339-27.381 36.814 4.481 1.346 9.866 7.394 13.252 14.352 4.257 8.743 15.475 33.21 19.737 43.107H63.315m53.229 0V.883h74.093v27.852h-40.193v22.213h32.799v26.915h-32.799v26.72h45.143v28.293h-79.043m215.796 0h-36.15l-6.769-38.161c-2.912-15.945-5.828-33.212-6.485-41.512h-.223c-.25 6.486-3.157 24.22-6.293 41.512l-6.96 38.161h-37.057L200.292.883h35.93l7.4 35.686c6.293 29.639 7.418 42.42 7.64 47.367.906-10.554 3.134-26.942 6.733-46.461L264.733.883h37.722L311 45.12c2.011 9.87 4.486 22.654 5.395 38.816h.215c.662-11.903 4.704-37.47 7.178-50.281L330.524.883h36.155L332.34 132.876m43.77 0V.883h74.31v27.852h-40.413v22.213h33.02v26.915h-33.02v26.72h45.366v28.293h-79.262"/><path d="M939.508 132.876h12.561V.883h-12.561v131.993M874.84 30.521c-28.755 0-52.103 23.34-52.103 52.069 0 28.733 23.348 52.073 52.103 52.073 15.693 0 29.855-6.953 39.508-18.172v16.385h12.563V82.59c0-28.73-23.338-52.069-52.071-52.069zm0 91.577c-21.801 0-39.535-17.728-39.535-39.508 0-21.775 17.734-39.507 39.535-39.507 21.776 0 39.508 17.732 39.508 39.507 0 21.78-17.732 39.508-39.508 39.508" fill-rule="evenodd"/><path d="M752.657 32.308v100.568h12.594V44.87h26.945v88.007h12.561V44.87h25.848V32.308h-25.848V.883h-12.561v31.425h-39.539m-12.564 86.19c0 28.733-23.34 52.075-52.097 52.075-25.35 0-46.465-18.176-51.196-42.203h13.035c4.261 17.067 19.765 29.635 38.161 29.635 21.804 0 39.532-17.734 39.532-39.507v-2.007c-9.645 11.219-23.807 18.172-39.532 18.172-28.73 0-52.076-23.34-52.076-52.073 0-28.73 23.347-52.069 52.076-52.069 28.757 0 52.097 23.34 52.097 52.069zm-52.097-75.415c-21.776 0-39.51 17.732-39.51 39.507 0 21.78 17.734 39.508 39.51 39.508 21.804 0 39.532-17.728 39.532-39.508 0-21.775-17.728-39.507-39.532-39.507m-75.883 89.793h12.566V32.308h-12.566v100.568M598.637 82.59c0 28.733-23.338 52.073-52.093 52.073-28.733 0-52.103-23.34-52.103-52.073 0-28.73 23.37-52.069 52.103-52.069 15.724 0 29.852 6.954 39.508 18.173V.883h12.585V82.59zm-52.093-39.507c-21.776 0-39.508 17.732-39.508 39.507 0 21.78 17.732 39.508 39.508 39.508 21.772 0 39.508-17.728 39.508-39.508 0-21.775-17.736-39.507-39.508-39.507M618.41.001c4.013 0 7.174 3.132 7.174 7.178 0 4.041-3.161 7.173-7.175 7.173-4.068 0-7.205-3.132-7.205-7.173 0-4.046 3.137-7.178 7.205-7.178m140.546 0c4.044 0 7.2 3.132 7.2 7.178 0 4.041-3.156 7.173-7.2 7.173-4.039 0-7.172-3.132-7.172-7.173 0-4.046 3.133-7.178 7.172-7.178" fill-rule="evenodd"/></g></svg>