<svg version="1" xmlns="http://www.w3.org/2000/svg" width="1086.667" height="173.333" viewBox="0 0 815 130"><path d="M77 2c-18.5 3.3-34.1 9.1-47.2 17.5-55.6 36-29.3 95.3 48 108.6C93 130.6 93 130.6 93 127c0-1.7-.3-3-.6-3s-5.1-.9-10.5-2c-42.8-8.7-68.6-39.2-59-69.9 5.5-17.7 24.5-33.8 48.6-41.4 4.4-1.4 10.3-2.8 13-3.2 8-1.1 8.5-1.3 8.5-4.6 0-3.5-.8-3.6-16-.9zm43.2 1.2c.3 3.1.4 3.1 9.7 5 32.3 6.5 56 26.4 60.2 50.5 3.1 17.5-6.9 36.7-25.5 49.1-11.2 7.5-24.2 12.3-42.3 15.8-1.8.3-2.3 1.1-2.3 3.5v3.1l5.3-.7c24.8-3.2 47.2-11.5 63-23.5 16.8-12.7 25.6-31.1 22.8-47.3-1.3-7.7-6.7-18.6-12.2-25C186 18.8 161 6.5 134.2 1.9c-14.9-2.5-14.4-2.5-14 1.3z"/><path d="M85.6 17.5c-22.5 4.7-41.7 16.9-48.9 31.1-12.5 24.8 4.7 50.9 40.8 62.1 8.5 2.6 10 2.7 28.5 2.7s20-.1 28.5-2.7c19.6-6.1 35.3-17.6 41.2-30.3 2.4-5.1 2.8-7.1 2.8-15.4s-.4-10.3-2.8-15.4c-6-13-23.9-25.7-43.2-30.7-10.4-2.8-36.5-3.5-46.9-1.4zm38.9 5c16 4.1 30.8 15.1 36.7 27.4 2.9 5.8 3.2 7.6 3.3 15.1 0 7.6-.3 9.2-3.2 15.1-14.8 30-63.7 39.4-94.6 18.3-8-5.5-12.6-10.8-16.4-19-2.4-5-2.8-7.2-2.8-14.4 0-7.5.4-9.3 3.1-15.1 8.9-18.7 32.6-30.6 58.4-29.4 5.2.2 12.2 1.1 15.5 2z"/><path d="M96.1 34.6c-3.2 1.6-6.1 4-7.6 6.3C81.8 51.3 85.6 60.7 100 69c10.1 5.8 12 7.7 12 11.6 0 3.1-.4 3.7-3.7 5.1-4.2 1.7-11 1.2-17.4-1.4-2.2-.8-4.1-1.4-4.3-1.2-.2.2-.6 3-.9 6.2-.7 6.9-.3 7.2 11 8.8 6.6 1 8.8.9 14.2-.5 11.2-2.9 16.1-8.3 16.1-17.8 0-7.4-2.3-10.6-12.7-17.3-4.8-3.2-9.8-6.7-11-7.8-3-2.6-3.1-8.2-.4-9.7 2.6-1.3 12-1.3 16 .1 1.8.6 3.4.9 3.6.7.2-.2.7-2.9 1.1-6l.6-5.6-5.1-1.1c-9.1-1.9-17.1-1.4-23 1.5zm152.3.2c-7.3 3.5-11.2 11.3-9.9 19.9.9 6.4 4.6 10 15 14.8 9.9 4.6 11.8 6.2 11.8 10.1 0 6.3-10.1 9.4-19.9 6-2.6-.9-4.8-1.5-4.9-1.3-.1.1-.5 2.5-.9 5.3l-.6 5.2 4.4 1.1c5.6 1.4 16.9 1.4 21.9 0 9.3-2.5 15.2-12.6 12.8-21.6-1.8-6.6-4.7-9.2-15.7-14.4-8-3.7-10.5-5.3-10.9-7.1-.8-3.2.9-7.4 3.6-8.8 2.2-1.2 14-.9 17 .4 1.3.6 1.7-.2 2.3-4 .4-2.9.2-5.2-.4-5.8-.6-.6-5.7-1.2-11.3-1.4-8.4-.2-10.9.1-14.3 1.6zm184.6-.3c-12.6 3.6-20 12.2-21.9 25.7-2.3 16.8 4.1 29.7 17.5 34.8 7 2.7 21.4 3.3 30.7 1.2l5.7-1.3V61h-25v10h13v15.9l-3.6.7c-8.4 1.6-17.1-1.8-21.9-8.5-2.4-3.5-3-5.4-3.3-11.2-1.1-18.7 12.3-28.6 31.8-23.5 6.3 1.6 7 1.2 7-4.7 0-3.2-.4-3.9-2.7-4.8-4.9-1.8-21.2-2.1-27.3-.4zm204.5-.2C623.4 39 616.8 48.8 616.8 65c0 8.5.8 12.2 3.7 18 5 9.9 13.4 14.4 26.5 14.4 14 0 22.3-5 27.6-16.8 2.3-5.1 2.8-7.5 2.8-14.6.1-15-5.6-25.3-16.6-30-6.4-2.8-17.5-3.6-23.3-1.7zm15.8 10.1c7.1 3 11 10.5 11 21.1-.1 15.3-8.7 24.3-21 22-4.8-.9-10.7-6.8-12.2-12-1.4-5-1.4-14.8-.1-19.7 2.8-10 13.2-15.3 22.3-11.4zm129.9-9.9c-12.7 3.6-20.2 12.3-22.1 25.7-2.4 17.4 4.7 30.5 19.2 35.5 6.3 2.1 20.6 2.4 29 .5l5.7-1.3V61h-25v10h13v15.9l-3.6.7c-8.4 1.6-17.1-1.8-21.9-8.5-2.4-3.5-3-5.4-3.3-11.2-1.1-18.7 12.3-28.6 31.8-23.5 6.4 1.7 7 1.2 7-5 0-4.9-.4-5.1-15-5.9-6.8-.4-11-.1-14.8 1zM283 34.4c0 .3 4.8 8.5 10.8 18.3l10.7 17.8.5 13 .5 13 6.3.3 6.2.3V72.2l11-18.7c6.1-10.2 11-18.8 11-19 0-.3-2.9-.5-6.4-.5h-6.5l-7.4 13.1-7.5 13.1-4-6.9c-2.1-3.7-5.4-9.6-7.3-13l-3.4-6.3h-7.2c-4 0-7.3.2-7.3.4zm65 31.1V97h12V73.7l.1-23.2 11.7 23 11.7 23 7.8.3 7.7.3V34h-12v23.2l-.1 23.3-12-23.3-12-23.2H348v31.5zm130 0V97h37V87h-24V69h22.1l-.3-4.8-.3-4.7-10.7-.3-10.8-.3V44h24V34h-37v31.5zm50 0V97h12l.2-23.3.3-23.2 11.8 23.3 11.8 23.3 7.7-.3 7.7-.3v-62h-12l-.5 22.3-.5 22.3L555 56.6 543.5 34H528v31.5zm64.5-30.2c-.3.7-.4 14.7-.3 31.2l.3 30 6.3.3 6.2.3V34h-6c-4 0-6.2.4-6.5 1.3zm114 28.9c-6.5 16.7-12 30.9-12.2 31.5-.4 1 1.2 1.3 6 1.3h6.5l2.8-7.3 2.9-7.2h25l2.9 7.2 2.8 7.3H757l-1.8-4.8c-1-2.6-6.5-16.7-12.3-31.4L732.5 34h-14.2l-11.8 30.2zm23.3-4.2l4.1 12h-17.7l4.1-12c2.3-6.6 4.4-12 4.7-12 .3 0 2.5 5.4 4.8 12z"/></svg>